<?xml version="1.0" encoding="UTF-8" standalone="no"?>
<!DOCTYPE svg PUBLIC "-//W3C//DTD SVG 1.1//EN"
 "http://www.w3.org/Graphics/SVG/1.1/DTD/svg11.dtd">
<!-- Generated by graphviz version 2.40.1 (20161225.0304)
 -->
<!-- Title: G Pages: 1 -->
<svg width="423pt" height="626pt"
 viewBox="0.00 0.00 423.19 626.00" xmlns="http://www.w3.org/2000/svg" xmlns:xlink="http://www.w3.org/1999/xlink">
<g id="graph0" class="graph" transform="scale(1 1) rotate(0) translate(4 622)">
<title>G</title>
<polygon fill="#ffffff" stroke="transparent" points="-4,4 -4,-622 419.188,-622 419.188,4 -4,4"/>
<g id="clust1" class="cluster">
<title>cluster_Global</title>
<path fill="none" stroke="#c0c0c0" d="M20,-8C20,-8 395.188,-8 395.188,-8 401.188,-8 407.188,-14 407.188,-20 407.188,-20 407.188,-598 407.188,-598 407.188,-604 401.188,-610 395.188,-610 395.188,-610 20,-610 20,-610 14,-610 8,-604 8,-598 8,-598 8,-20 8,-20 8,-14 14,-8 20,-8"/>
<text text-anchor="middle" x="207.594" y="-597.2" font-family="Times,serif" font-size="11.00" fill="#c0c0c0">Global</text>
</g>
<g id="clust2" class="cluster">
<title>cluster_\RudolfByker</title>
<path fill="none" stroke="#c0c0c0" d="M44.094,-16C44.094,-16 387.188,-16 387.188,-16 393.188,-16 399.188,-22 399.188,-28 399.188,-28 399.188,-410 399.188,-410 399.188,-416 393.188,-422 387.188,-422 387.188,-422 44.094,-422 44.094,-422 38.094,-422 32.094,-416 32.094,-410 32.094,-410 32.094,-28 32.094,-28 32.094,-22 38.094,-16 44.094,-16"/>
<text text-anchor="middle" x="215.641" y="-409.2" font-family="Times,serif" font-size="11.00" fill="#c0c0c0">RudolfByker</text>
</g>
<g id="clust3" class="cluster">
<title>cluster_\RudolfByker\PhpMarcCsl</title>
<path fill="none" stroke="#c0c0c0" d="M52.094,-24C52.094,-24 379.188,-24 379.188,-24 385.188,-24 391.188,-30 391.188,-36 391.188,-36 391.188,-382 391.188,-382 391.188,-388 385.188,-394 379.188,-394 379.188,-394 52.094,-394 52.094,-394 46.094,-394 40.094,-388 40.094,-382 40.094,-382 40.094,-36 40.094,-36 40.094,-30 46.094,-24 52.094,-24"/>
<text text-anchor="middle" x="215.641" y="-381.2" font-family="Times,serif" font-size="11.00" fill="#c0c0c0">PhpMarcCsl</text>
</g>
<g id="clust4" class="cluster">
<title>cluster_\RudolfByker\PhpMarcCsl\Tests</title>
<path fill="none" stroke="#c0c0c0" d="M227.188,-186C227.188,-186 371.188,-186 371.188,-186 377.188,-186 383.188,-192 383.188,-198 383.188,-198 383.188,-354 383.188,-354 383.188,-360 377.188,-366 371.188,-366 371.188,-366 227.188,-366 227.188,-366 221.188,-366 215.188,-360 215.188,-354 215.188,-354 215.188,-198 215.188,-198 215.188,-192 221.188,-186 227.188,-186"/>
<text text-anchor="middle" x="299.188" y="-353.2" font-family="Times,serif" font-size="11.00" fill="#c0c0c0">Tests</text>
</g>
<g id="clust5" class="cluster">
<title>cluster_Global\PHPUnit</title>
<path fill="none" stroke="#c0c0c0" d="M36.6978,-430C36.6978,-430 130.4902,-430 130.4902,-430 136.4902,-430 142.4902,-436 142.4902,-442 142.4902,-442 142.4902,-526 142.4902,-526 142.4902,-532 136.4902,-538 130.4902,-538 130.4902,-538 36.6978,-538 36.6978,-538 30.6978,-538 24.6978,-532 24.6978,-526 24.6978,-526 24.6978,-442 24.6978,-442 24.6978,-436 30.6978,-430 36.6978,-430"/>
<text text-anchor="middle" x="83.594" y="-525.2" font-family="Times,serif" font-size="11.00" fill="#c0c0c0">PHPUnit</text>
</g>
<g id="clust6" class="cluster">
<title>cluster_Global\PHPUnit\Framework</title>
<path fill="none" stroke="#c0c0c0" d="M44.6978,-438C44.6978,-438 122.4902,-438 122.4902,-438 128.4902,-438 134.4902,-444 134.4902,-450 134.4902,-450 134.4902,-498 134.4902,-498 134.4902,-504 128.4902,-510 122.4902,-510 122.4902,-510 44.6978,-510 44.6978,-510 38.6978,-510 32.6978,-504 32.6978,-498 32.6978,-498 32.6978,-450 32.6978,-450 32.6978,-444 38.6978,-438 44.6978,-438"/>
<text text-anchor="middle" x="83.594" y="-497.2" font-family="Times,serif" font-size="11.00" fill="#c0c0c0">Framework</text>
</g>
<!-- \\RudolfByker\\PhpMarcCsl\\Tests\\MarcCslVariablesTest -->
<g id="node1" class="node">
<title>\\RudolfByker\\PhpMarcCsl\\Tests\\MarcCslVariablesTest</title>
<polygon fill="none" stroke="#000000" points="375.188,-338 223.188,-338 223.188,-302 375.188,-302 375.188,-338"/>
<text text-anchor="middle" x="299.188" y="-317.2" font-family="Courier,monospace" font-size="11.00" fill="#000000">MarcCslVariablesTest</text>
</g>
<!-- TestCase -->
<g id="node8" class="node">
<title>TestCase</title>
<ellipse fill="none" stroke="#000000" cx="83.594" cy="-464" rx="42.7926" ry="18"/>
<text text-anchor="middle" x="83.594" y="-460.3" font-family="Times,serif" font-size="14.00" fill="#c0c0c0">TestCase</text>
</g>
<!-- \\RudolfByker\\PhpMarcCsl\\Tests\\MarcCslVariablesTest&#45;&gt;TestCase -->
<g id="edge1" class="edge">
<title>\\RudolfByker\\PhpMarcCsl\\Tests\\MarcCslVariablesTest&#45;&gt;TestCase</title>
<path fill="none" stroke="#000000" d="M271.8829,-338.2377C231.7911,-365.0159 157.1877,-414.8451 114.9206,-443.0763"/>
<polygon fill="none" stroke="#000000" points="112.7878,-440.2919 106.4161,-448.7566 116.6758,-446.1128 112.7878,-440.2919"/>
</g>
<!-- \\RudolfByker\\PhpMarcCsl\\Tests\\UtilTest -->
<g id="node2" class="node">
<title>\\RudolfByker\\PhpMarcCsl\\Tests\\UtilTest</title>
<polygon fill="none" stroke="#000000" points="334.688,-284 263.688,-284 263.688,-248 334.688,-248 334.688,-284"/>
<text text-anchor="middle" x="299.188" y="-263.2" font-family="Courier,monospace" font-size="11.00" fill="#000000">UtilTest</text>
</g>
<!-- \\RudolfByker\\PhpMarcCsl\\Tests\\UtilTest&#45;&gt;TestCase -->
<g id="edge4" class="edge">
<title>\\RudolfByker\\PhpMarcCsl\\Tests\\UtilTest&#45;&gt;TestCase</title>
<path fill="none" stroke="#000000" d="M263.4055,-271.6292C247.3827,-275.5439 229.0263,-282.0995 215.188,-293 172.2556,-326.8182 185.2273,-355.2427 151.188,-398 139.0062,-413.3018 123.5063,-428.669 110.423,-440.7205"/>
<polygon fill="none" stroke="#000000" points="107.7051,-438.4597 102.6403,-447.7655 112.4028,-443.6493 107.7051,-438.4597"/>
</g>
<!-- \\RudolfByker\\PhpMarcCsl\\Tests\\MarcGrokTest -->
<g id="node3" class="node">
<title>\\RudolfByker\\PhpMarcCsl\\Tests\\MarcGrokTest</title>
<polygon fill="none" stroke="#000000" points="348.188,-230 250.188,-230 250.188,-194 348.188,-194 348.188,-230"/>
<text text-anchor="middle" x="299.188" y="-209.2" font-family="Courier,monospace" font-size="11.00" fill="#000000">MarcGrokTest</text>
</g>
<!-- \\RudolfByker\\PhpMarcCsl\\Tests\\MarcGrokTest&#45;&gt;TestCase -->
<g id="edge5" class="edge">
<title>\\RudolfByker\\PhpMarcCsl\\Tests\\MarcGrokTest&#45;&gt;TestCase</title>
<path fill="none" stroke="#000000" d="M250.015,-220.0322C237.4748,-224.0325 224.8309,-230.0246 215.188,-239 159.4277,-290.9004 193.5697,-334.7019 151.188,-398 140.4575,-414.0263 125.3225,-429.2555 112.0937,-441.0382"/>
<polygon fill="none" stroke="#000000" points="109.4302,-438.7146 104.1597,-447.9055 114.0113,-444.0074 109.4302,-438.7146"/>
</g>
<!-- \\RudolfByker\\PhpMarcCsl\\MarcGrok -->
<g id="node4" class="node">
<title>\\RudolfByker\\PhpMarcCsl\\MarcGrok</title>
<polygon fill="none" stroke="#000000" points="119.094,-176 48.094,-176 48.094,-140 119.094,-140 119.094,-176"/>
<text text-anchor="middle" x="83.594" y="-155.2" font-family="Courier,monospace" font-size="11.00" fill="#000000">MarcGrok</text>
</g>
<!-- \\RudolfByker\\PhpMarcCsl\\MarcCslVariables -->
<g id="node5" class="node">
<title>\\RudolfByker\\PhpMarcCsl\\MarcCslVariables</title>
<polygon fill="none" stroke="#000000" points="361.688,-176 236.688,-176 236.688,-140 361.688,-140 361.688,-176"/>
<text text-anchor="middle" x="299.188" y="-155.2" font-family="Courier,monospace" font-size="11.00" fill="#000000">MarcCslVariables</text>
</g>
<!-- \\RudolfByker\\PhpMarcCsl\\MarcCslVariables&#45;&gt;\\RudolfByker\\PhpMarcCsl\\MarcGrok -->
<g id="edge2" class="edge">
<title>\\RudolfByker\\PhpMarcCsl\\MarcCslVariables&#45;&gt;\\RudolfByker\\PhpMarcCsl\\MarcGrok</title>
<path fill="none" stroke="#000000" d="M236.5397,-158C202.2482,-158 160.5167,-158 129.3131,-158"/>
<polygon fill="none" stroke="#000000" points="129.1605,-154.5001 119.1605,-158 129.1605,-161.5001 129.1605,-154.5001"/>
</g>
<!-- JsonSerializable -->
<g id="node9" class="node">
<title>JsonSerializable</title>
<ellipse fill="none" stroke="#000000" cx="83.594" cy="-564" rx="67.6881" ry="18"/>
<text text-anchor="middle" x="83.594" y="-560.3" font-family="Times,serif" font-size="14.00" fill="#c0c0c0">JsonSerializable</text>
</g>
<!-- \\RudolfByker\\PhpMarcCsl\\MarcCslVariables&#45;&gt;JsonSerializable -->
<g id="edge3" class="edge">
<title>\\RudolfByker\\PhpMarcCsl\\MarcCslVariables&#45;&gt;JsonSerializable</title>
<path fill="none" stroke="#000000" stroke-dasharray="1,5" d="M236.4109,-167.4028C228.4297,-170.8981 221.0267,-175.6244 215.188,-182 113.6987,-292.8226 231.2871,-386.855 151.188,-514 144.1893,-525.1094 133.7633,-534.585 123.1827,-542.2032"/>
<polygon fill="none" stroke="#000000" points="121.0574,-539.415 114.7267,-547.9105 124.9735,-545.2172 121.0574,-539.415"/>
</g>
<!-- \\RudolfByker\\PhpMarcCsl\\RelatorTerm -->
<g id="node6" class="node">
<title>\\RudolfByker\\PhpMarcCsl\\RelatorTerm</title>
<polygon fill="none" stroke="#000000" points="344.688,-122 253.688,-122 253.688,-86 344.688,-86 344.688,-122"/>
<text text-anchor="start" x="265.188" y="-107.2" font-family="Courier,monospace" font-size="11.00" fill="#000000">«abstract»</text>
<text text-anchor="start" x="261.688" y="-95.2" font-family="Courier,monospace" font-size="11.00" fill="#000000">RelatorTerm</text>
</g>
<!-- \\RudolfByker\\PhpMarcCsl\\Util -->
<g id="node7" class="node">
<title>\\RudolfByker\\PhpMarcCsl\\Util</title>
<polygon fill="none" stroke="#000000" points="326.188,-68 272.188,-68 272.188,-32 326.188,-32 326.188,-68"/>
<text text-anchor="middle" x="299.188" y="-47.2" font-family="Courier,monospace" font-size="11.00" fill="#000000">Util</text>
</g>
</g>
</svg>
