<?xml version="1.0" encoding="UTF-8" standalone="no"?>
<!DOCTYPE svg PUBLIC "-//W3C//DTD SVG 1.1//EN"
 "http://www.w3.org/Graphics/SVG/1.1/DTD/svg11.dtd">
<!-- Generated by graphviz version 2.43.0 (0)
 -->
<!-- Title: G Pages: 1 -->
<svg width="423pt" height="626pt"
 viewBox="0.00 0.00 423.19 626.00" xmlns="http://www.w3.org/2000/svg" xmlns:xlink="http://www.w3.org/1999/xlink">
<g id="graph0" class="graph" transform="scale(1 1) rotate(0) translate(4 622)">
<title>G</title>
<polygon fill="white" stroke="transparent" points="-4,4 -4,-622 419.19,-622 419.19,4 -4,4"/>
<g id="clust1" class="cluster">
<title>cluster_Global</title>
<path fill="none" stroke="gray" d="M20,-8C20,-8 395.19,-8 395.19,-8 401.19,-8 407.19,-14 407.19,-20 407.19,-20 407.19,-598 407.19,-598 407.19,-604 401.19,-610 395.19,-610 395.19,-610 20,-610 20,-610 14,-610 8,-604 8,-598 8,-598 8,-20 8,-20 8,-14 14,-8 20,-8"/>
<text text-anchor="middle" x="207.59" y="-597.2" font-family="Times,serif" font-size="11.00" fill="gray">Global</text>
</g>
<g id="clust2" class="cluster">
<title>cluster_\RudolfByker</title>
<path fill="none" stroke="gray" d="M44.09,-16C44.09,-16 387.19,-16 387.19,-16 393.19,-16 399.19,-22 399.19,-28 399.19,-28 399.19,-410 399.19,-410 399.19,-416 393.19,-422 387.19,-422 387.19,-422 44.09,-422 44.09,-422 38.09,-422 32.09,-416 32.09,-410 32.09,-410 32.09,-28 32.09,-28 32.09,-22 38.09,-16 44.09,-16"/>
<text text-anchor="middle" x="215.64" y="-409.2" font-family="Times,serif" font-size="11.00" fill="gray">RudolfByker</text>
</g>
<g id="clust3" class="cluster">
<title>cluster_\RudolfByker\PhpMarcCsl</title>
<path fill="none" stroke="gray" d="M52.09,-24C52.09,-24 379.19,-24 379.19,-24 385.19,-24 391.19,-30 391.19,-36 391.19,-36 391.19,-382 391.19,-382 391.19,-388 385.19,-394 379.19,-394 379.19,-394 52.09,-394 52.09,-394 46.09,-394 40.09,-388 40.09,-382 40.09,-382 40.09,-36 40.09,-36 40.09,-30 46.09,-24 52.09,-24"/>
<text text-anchor="middle" x="215.64" y="-381.2" font-family="Times,serif" font-size="11.00" fill="gray">PhpMarcCsl</text>
</g>
<g id="clust4" class="cluster">
<title>cluster_\RudolfByker\PhpMarcCsl\Tests</title>
<path fill="none" stroke="gray" d="M227.19,-186C227.19,-186 371.19,-186 371.19,-186 377.19,-186 383.19,-192 383.19,-198 383.19,-198 383.19,-354 383.19,-354 383.19,-360 377.19,-366 371.19,-366 371.19,-366 227.19,-366 227.19,-366 221.19,-366 215.19,-360 215.19,-354 215.19,-354 215.19,-198 215.19,-198 215.19,-192 221.19,-186 227.19,-186"/>
<text text-anchor="middle" x="299.19" y="-353.2" font-family="Times,serif" font-size="11.00" fill="gray">Tests</text>
</g>
<g id="clust5" class="cluster">
<title>cluster_Global\PHPUnit</title>
<path fill="none" stroke="gray" d="M36.7,-430C36.7,-430 130.49,-430 130.49,-430 136.49,-430 142.49,-436 142.49,-442 142.49,-442 142.49,-526 142.49,-526 142.49,-532 136.49,-538 130.49,-538 130.49,-538 36.7,-538 36.7,-538 30.7,-538 24.7,-532 24.7,-526 24.7,-526 24.7,-442 24.7,-442 24.7,-436 30.7,-430 36.7,-430"/>
<text text-anchor="middle" x="83.59" y="-525.2" font-family="Times,serif" font-size="11.00" fill="gray">PHPUnit</text>
</g>
<g id="clust6" class="cluster">
<title>cluster_Global\PHPUnit\Framework</title>
<path fill="none" stroke="gray" d="M44.7,-438C44.7,-438 122.49,-438 122.49,-438 128.49,-438 134.49,-444 134.49,-450 134.49,-450 134.49,-498 134.49,-498 134.49,-504 128.49,-510 122.49,-510 122.49,-510 44.7,-510 44.7,-510 38.7,-510 32.7,-504 32.7,-498 32.7,-498 32.7,-450 32.7,-450 32.7,-444 38.7,-438 44.7,-438"/>
<text text-anchor="middle" x="83.59" y="-497.2" font-family="Times,serif" font-size="11.00" fill="gray">Framework</text>
</g>
<!-- \\RudolfByker\\PhpMarcCsl\\Tests\\MarcCslVariablesTest -->
<g id="node1" class="node">
<title>\\RudolfByker\\PhpMarcCsl\\Tests\\MarcCslVariablesTest</title>
<polygon fill="none" stroke="black" points="375.19,-338 223.19,-338 223.19,-302 375.19,-302 375.19,-338"/>
<text text-anchor="middle" x="299.19" y="-317.2" font-family="Courier,monospace" font-size="11.00">MarcCslVariablesTest</text>
</g>
<!-- TestCase -->
<g id="node8" class="node">
<title>TestCase</title>
<ellipse fill="none" stroke="black" cx="83.59" cy="-464" rx="42.79" ry="18"/>
<text text-anchor="middle" x="83.59" y="-460.3" font-family="Times,serif" font-size="14.00" fill="gray">TestCase</text>
</g>
<!-- \\RudolfByker\\PhpMarcCsl\\Tests\\MarcCslVariablesTest&#45;&gt;TestCase -->
<g id="edge1" class="edge">
<title>\\RudolfByker\\PhpMarcCsl\\Tests\\MarcCslVariablesTest&#45;&gt;TestCase</title>
<path fill="none" stroke="black" d="M271.14,-338.24C231.42,-365.02 157.51,-414.85 115.63,-443.08"/>
<polygon fill="none" stroke="black" points="113.54,-440.26 107.2,-448.76 117.45,-446.07 113.54,-440.26"/>
</g>
<!-- \\RudolfByker\\PhpMarcCsl\\Tests\\UtilTest -->
<g id="node2" class="node">
<title>\\RudolfByker\\PhpMarcCsl\\Tests\\UtilTest</title>
<polygon fill="none" stroke="black" points="334.69,-284 263.69,-284 263.69,-248 334.69,-248 334.69,-284"/>
<text text-anchor="middle" x="299.19" y="-263.2" font-family="Courier,monospace" font-size="11.00">UtilTest</text>
</g>
<!-- \\RudolfByker\\PhpMarcCsl\\Tests\\UtilTest&#45;&gt;TestCase -->
<g id="edge4" class="edge">
<title>\\RudolfByker\\PhpMarcCsl\\Tests\\UtilTest&#45;&gt;TestCase</title>
<path fill="none" stroke="black" d="M263.65,-271.51C247.63,-275.42 229.1,-282.01 215.19,-293 172.31,-326.89 185.07,-355.12 151.19,-398 139.15,-413.23 123.88,-428.59 111,-440.66"/>
<polygon fill="none" stroke="black" points="108.32,-438.37 103.34,-447.72 113.06,-443.52 108.32,-438.37"/>
</g>
<!-- \\RudolfByker\\PhpMarcCsl\\Tests\\MarcGrokTest -->
<g id="node3" class="node">
<title>\\RudolfByker\\PhpMarcCsl\\Tests\\MarcGrokTest</title>
<polygon fill="none" stroke="black" points="348.19,-230 250.19,-230 250.19,-194 348.19,-194 348.19,-230"/>
<text text-anchor="middle" x="299.19" y="-209.2" font-family="Courier,monospace" font-size="11.00">MarcGrokTest</text>
</g>
<!-- \\RudolfByker\\PhpMarcCsl\\Tests\\MarcGrokTest&#45;&gt;TestCase -->
<g id="edge5" class="edge">
<title>\\RudolfByker\\PhpMarcCsl\\Tests\\MarcGrokTest&#45;&gt;TestCase</title>
<path fill="none" stroke="black" d="M250.03,-220C237.49,-224 224.82,-230 215.19,-239 159.52,-291 193.33,-334.54 151.19,-398 140.52,-414.06 125.47,-429.38 112.38,-441.22"/>
<polygon fill="none" stroke="black" points="109.74,-438.88 104.54,-448.11 114.36,-444.14 109.74,-438.88"/>
</g>
<!-- \\RudolfByker\\PhpMarcCsl\\MarcGrok -->
<g id="node4" class="node">
<title>\\RudolfByker\\PhpMarcCsl\\MarcGrok</title>
<polygon fill="none" stroke="black" points="119.09,-176 48.09,-176 48.09,-140 119.09,-140 119.09,-176"/>
<text text-anchor="middle" x="83.59" y="-155.2" font-family="Courier,monospace" font-size="11.00">MarcGrok</text>
</g>
<!-- \\RudolfByker\\PhpMarcCsl\\MarcCslVariables -->
<g id="node5" class="node">
<title>\\RudolfByker\\PhpMarcCsl\\MarcCslVariables</title>
<polygon fill="none" stroke="black" points="361.69,-176 236.69,-176 236.69,-140 361.69,-140 361.69,-176"/>
<text text-anchor="middle" x="299.19" y="-155.2" font-family="Courier,monospace" font-size="11.00">MarcCslVariables</text>
</g>
<!-- \\RudolfByker\\PhpMarcCsl\\MarcCslVariables&#45;&gt;\\RudolfByker\\PhpMarcCsl\\MarcGrok -->
<g id="edge2" class="edge">
<title>\\RudolfByker\\PhpMarcCsl\\MarcCslVariables&#45;&gt;\\RudolfByker\\PhpMarcCsl\\MarcGrok</title>
<path fill="none" stroke="black" d="M236.41,-158C202.2,-158 160.46,-158 129.41,-158"/>
<polygon fill="none" stroke="black" points="129.31,-154.5 119.31,-158 129.31,-161.5 129.31,-154.5"/>
</g>
<!-- JsonSerializable -->
<g id="node9" class="node">
<title>JsonSerializable</title>
<ellipse fill="none" stroke="black" cx="83.59" cy="-564" rx="67.69" ry="18"/>
<text text-anchor="middle" x="83.59" y="-560.3" font-family="Times,serif" font-size="14.00" fill="gray">JsonSerializable</text>
</g>
<!-- \\RudolfByker\\PhpMarcCsl\\MarcCslVariables&#45;&gt;JsonSerializable -->
<g id="edge3" class="edge">
<title>\\RudolfByker\\PhpMarcCsl\\MarcCslVariables&#45;&gt;JsonSerializable</title>
<path fill="none" stroke="black" stroke-dasharray="1,5" d="M236.57,-167.33C228.52,-170.83 221.05,-175.57 215.19,-182 113.88,-292.98 230.83,-386.57 151.19,-514 144.23,-525.12 133.84,-534.65 123.33,-542.3"/>
<polygon fill="none" stroke="black" points="121.21,-539.51 114.93,-548.04 125.16,-545.29 121.21,-539.51"/>
</g>
<!-- \\RudolfByker\\PhpMarcCsl\\Relators -->
<g id="node6" class="node">
<title>\\RudolfByker\\PhpMarcCsl\\Relators</title>
<polygon fill="none" stroke="black" points="341.19,-122 257.19,-122 257.19,-86 341.19,-86 341.19,-122"/>
<text text-anchor="start" x="265.19" y="-107.2" font-family="Courier,monospace" font-size="11.00">«abstract»</text>
<text text-anchor="start" x="271.69" y="-95.2" font-family="Courier,monospace" font-size="11.00">Relators</text>
</g>
<!-- \\RudolfByker\\PhpMarcCsl\\Util -->
<g id="node7" class="node">
<title>\\RudolfByker\\PhpMarcCsl\\Util</title>
<polygon fill="none" stroke="black" points="326.19,-68 272.19,-68 272.19,-32 326.19,-32 326.19,-68"/>
<text text-anchor="middle" x="299.19" y="-47.2" font-family="Courier,monospace" font-size="11.00">Util</text>
</g>
</g>
</svg>
